<svg width="82" height="40" viewBox="0 0 82 40" fill="none" xmlns="http://www.w3.org/2000/svg">
<g clip-path="url(#clip0)">
<path d="M7.46339 0C2.37471 0 0 2.88619 0 7.38603V12.6074C0 17.2778 0.835064 19.2719 4.20142 21.3841L6.79794 22.9977C8.89865 24.2703 9.17266 25.2148 9.17266 27.9436V32.5484C9.17266 33.8865 8.55941 34.713 7.39815 34.713C6.23689 34.713 5.62363 33.939 5.62363 32.5484V25.3198H0V32.6009C0 37.1532 2.32252 39.9869 7.34595 39.9869C12.539 39.9869 14.9137 36.9826 14.9137 32.6009V26.9334C14.9137 22.6041 13.8047 20.3739 10.6079 18.3273L8.0114 16.6612C6.18469 15.4936 5.74107 14.6671 5.74107 11.6628V7.4385C5.74107 6.10036 6.35432 5.27386 7.45034 5.27386C8.6116 5.27386 9.27704 6.11348 9.27704 7.4385V14.6015H14.9137V7.38603C14.9137 2.93867 12.539 0 7.46339 0Z" fill="white"/>
<path d="M16.6882 6.11375H20.6678V39.4493H26.4089V6.11375H30.3885V0.55127H16.6882V6.11375Z" fill="white"/>
<path d="M67.9664 0.55127V6.11375H71.946V39.4493H77.687V6.11375H81.6666V0.55127H67.9664Z" fill="white"/>
<path d="M33.9245 0.55127L30.7147 39.4361H36.4036L37.1865 29.0459H41.3618L42.1447 39.4361H47.951L44.7542 0.55127H33.9245ZM37.591 23.772L38.9479 5.82513H39.6264L40.9834 23.772H37.591Z" fill="white"/>
<path d="M65.8657 36.4975V26.3827C65.8657 23.1554 64.6522 21.3843 61.7165 20.7677V20.0987C64.6392 19.6526 66.1397 17.488 66.1397 13.9852V7.3863C66.1397 3.10949 63.5954 0.55127 58.6763 0.55127H50.8867V39.4361H56.6278V23.1685H60.1116V36.4975C60.1116 38.7146 61.051 39.4361 61.051 39.4361H66.7921C66.8051 39.4493 65.8657 38.7277 65.8657 36.4975ZM60.3986 14.2738C60.3986 17.055 59.7854 17.8815 57.9065 17.8815H56.6408V5.83825H58.1283C59.9028 5.83825 60.3986 6.5598 60.3986 9.44599V14.2738Z" fill="white"/>
</g>
<defs>
<clipPath id="clip0">
<rect width="81.6667" height="40" fill="white"/>
</clipPath>
</defs>
</svg>
